<mxfile host="app.diagrams.net" agent="Mozilla/5.0 (Windows NT 10.0; Win64; x64; rv:131.0) Gecko/20100101 Firefox/131.0" version="24.7.17">
  <diagram name="Page-1" id="mgXiFCkdmrgJeU_mo8xs">
    <mxGraphModel dx="893" dy="472" grid="1" gridSize="10" guides="1" tooltips="1" connect="1" arrows="1" fold="1" page="1" pageScale="1" pageWidth="827" pageHeight="1169" math="0" shadow="0">
      <root>
        <mxCell id="0" />
        <mxCell id="1" parent="0" />
        <mxCell id="eVyItokBTzeW3BjOjDOL-35" value="" style="rounded=1;whiteSpace=wrap;html=1;" vertex="1" parent="1">
          <mxGeometry x="200" y="25" width="720" height="195" as="geometry" />
        </mxCell>
        <mxCell id="eVyItokBTzeW3BjOjDOL-3" style="edgeStyle=orthogonalEdgeStyle;rounded=0;orthogonalLoop=1;jettySize=auto;html=1;entryX=0.5;entryY=0;entryDx=0;entryDy=0;" edge="1" parent="1" source="eVyItokBTzeW3BjOjDOL-1" target="eVyItokBTzeW3BjOjDOL-2">
          <mxGeometry relative="1" as="geometry" />
        </mxCell>
        <mxCell id="eVyItokBTzeW3BjOjDOL-1" value="&lt;div&gt;Запрос смены&lt;/div&gt;&lt;div&gt;почты&lt;br&gt;&lt;/div&gt;" style="rounded=1;whiteSpace=wrap;html=1;" vertex="1" parent="1">
          <mxGeometry x="240" y="40" width="120" height="60" as="geometry" />
        </mxCell>
        <mxCell id="eVyItokBTzeW3BjOjDOL-2" value="&lt;div&gt;POST&lt;/div&gt;&lt;div&gt;/auth/request-change-email&lt;br&gt;&lt;/div&gt;" style="rounded=1;whiteSpace=wrap;html=1;" vertex="1" parent="1">
          <mxGeometry x="220" y="140" width="160" height="60" as="geometry" />
        </mxCell>
        <mxCell id="eVyItokBTzeW3BjOjDOL-6" value="{&quot;new_email&quot;: &quot;string&quot;}" style="text;html=1;align=center;verticalAlign=middle;whiteSpace=wrap;rounded=0;" vertex="1" parent="1">
          <mxGeometry x="310" y="238" width="140" height="30" as="geometry" />
        </mxCell>
        <mxCell id="eVyItokBTzeW3BjOjDOL-28" style="edgeStyle=orthogonalEdgeStyle;rounded=0;orthogonalLoop=1;jettySize=auto;html=1;entryX=0;entryY=0.5;entryDx=0;entryDy=0;dashed=1;dashPattern=1 2;" edge="1" parent="1" source="eVyItokBTzeW3BjOjDOL-14" target="eVyItokBTzeW3BjOjDOL-27">
          <mxGeometry relative="1" as="geometry">
            <Array as="points">
              <mxPoint x="560" y="70" />
            </Array>
          </mxGeometry>
        </mxCell>
        <mxCell id="eVyItokBTzeW3BjOjDOL-29" style="edgeStyle=orthogonalEdgeStyle;rounded=0;orthogonalLoop=1;jettySize=auto;html=1;entryX=0;entryY=0.5;entryDx=0;entryDy=0;" edge="1" parent="1" source="eVyItokBTzeW3BjOjDOL-14" target="eVyItokBTzeW3BjOjDOL-18">
          <mxGeometry relative="1" as="geometry" />
        </mxCell>
        <mxCell id="eVyItokBTzeW3BjOjDOL-14" value="Переход по ссылке" style="rounded=1;whiteSpace=wrap;html=1;" vertex="1" parent="1">
          <mxGeometry x="470" y="140" width="120" height="60" as="geometry" />
        </mxCell>
        <mxCell id="eVyItokBTzeW3BjOjDOL-17" value="Link:&lt;br&gt;&lt;div&gt;host/change-email?token={token}&amp;amp;email={new_email}&lt;/div&gt;" style="text;html=1;align=left;verticalAlign=middle;whiteSpace=wrap;rounded=0;" vertex="1" parent="1">
          <mxGeometry x="550" y="228" width="180" height="50" as="geometry" />
        </mxCell>
        <mxCell id="eVyItokBTzeW3BjOjDOL-18" value="&lt;div&gt;POST&lt;/div&gt;&lt;div&gt;/auth/change-email&lt;br&gt;&lt;/div&gt;" style="rounded=1;whiteSpace=wrap;html=1;" vertex="1" parent="1">
          <mxGeometry x="750" y="140" width="120" height="60" as="geometry" />
        </mxCell>
        <mxCell id="eVyItokBTzeW3BjOjDOL-30" style="edgeStyle=orthogonalEdgeStyle;rounded=0;orthogonalLoop=1;jettySize=auto;html=1;entryX=0.5;entryY=0;entryDx=0;entryDy=0;" edge="1" parent="1" source="eVyItokBTzeW3BjOjDOL-27" target="eVyItokBTzeW3BjOjDOL-18">
          <mxGeometry relative="1" as="geometry" />
        </mxCell>
        <mxCell id="eVyItokBTzeW3BjOjDOL-27" value="&lt;div&gt;host/change-email?token={token}&amp;amp;email={new_email} -&amp;gt;&lt;/div&gt;&lt;div&gt;token, new_email&lt;br&gt;&lt;/div&gt;" style="rounded=1;whiteSpace=wrap;html=1;dashed=1;dashPattern=1 2;" vertex="1" parent="1">
          <mxGeometry x="720" y="40" width="180" height="60" as="geometry" />
        </mxCell>
        <mxCell id="eVyItokBTzeW3BjOjDOL-33" style="edgeStyle=orthogonalEdgeStyle;rounded=0;orthogonalLoop=1;jettySize=auto;html=1;entryX=1;entryY=0.5;entryDx=0;entryDy=0;dashed=1;dashPattern=1 2;" edge="1" parent="1" source="eVyItokBTzeW3BjOjDOL-32" target="eVyItokBTzeW3BjOjDOL-1">
          <mxGeometry relative="1" as="geometry" />
        </mxCell>
        <mxCell id="eVyItokBTzeW3BjOjDOL-34" style="edgeStyle=orthogonalEdgeStyle;rounded=0;orthogonalLoop=1;jettySize=auto;html=1;entryX=0.25;entryY=0;entryDx=0;entryDy=0;dashed=1;dashPattern=1 2;" edge="1" parent="1" source="eVyItokBTzeW3BjOjDOL-32" target="eVyItokBTzeW3BjOjDOL-14">
          <mxGeometry relative="1" as="geometry" />
        </mxCell>
        <mxCell id="eVyItokBTzeW3BjOjDOL-32" value="UI" style="text;html=1;align=center;verticalAlign=middle;whiteSpace=wrap;rounded=0;dashed=1;dashPattern=1 2;strokeColor=default;" vertex="1" parent="1">
          <mxGeometry x="470" y="55" width="60" height="30" as="geometry" />
        </mxCell>
        <mxCell id="eVyItokBTzeW3BjOjDOL-36" value="" style="rounded=1;whiteSpace=wrap;html=1;" vertex="1" parent="1">
          <mxGeometry x="200" y="290" width="720" height="350" as="geometry" />
        </mxCell>
        <mxCell id="eVyItokBTzeW3BjOjDOL-9" value="" style="rounded=1;whiteSpace=wrap;html=1;" vertex="1" parent="1">
          <mxGeometry x="210" y="308" width="180" height="190" as="geometry" />
        </mxCell>
        <mxCell id="eVyItokBTzeW3BjOjDOL-8" style="edgeStyle=orthogonalEdgeStyle;rounded=0;orthogonalLoop=1;jettySize=auto;html=1;entryX=0.5;entryY=0;entryDx=0;entryDy=0;" edge="1" parent="1" source="eVyItokBTzeW3BjOjDOL-4" target="eVyItokBTzeW3BjOjDOL-7">
          <mxGeometry relative="1" as="geometry" />
        </mxCell>
        <mxCell id="eVyItokBTzeW3BjOjDOL-4" value="request_change_email()" style="rounded=1;whiteSpace=wrap;html=1;" vertex="1" parent="1">
          <mxGeometry x="225" y="328" width="150" height="60" as="geometry" />
        </mxCell>
        <mxCell id="eVyItokBTzeW3BjOjDOL-7" value="&lt;div&gt;fastapi-users&lt;/div&gt;&lt;div&gt;token logic&lt;/div&gt;" style="rounded=1;whiteSpace=wrap;html=1;" vertex="1" parent="1">
          <mxGeometry x="240" y="418" width="120" height="60" as="geometry" />
        </mxCell>
        <mxCell id="eVyItokBTzeW3BjOjDOL-23" style="edgeStyle=orthogonalEdgeStyle;rounded=0;orthogonalLoop=1;jettySize=auto;html=1;entryX=0;entryY=0.5;entryDx=0;entryDy=0;" edge="1" parent="1" source="eVyItokBTzeW3BjOjDOL-10" target="eVyItokBTzeW3BjOjDOL-13">
          <mxGeometry relative="1" as="geometry" />
        </mxCell>
        <mxCell id="eVyItokBTzeW3BjOjDOL-10" value="send_email" style="rounded=1;whiteSpace=wrap;html=1;" vertex="1" parent="1">
          <mxGeometry x="240" y="558" width="120" height="60" as="geometry" />
        </mxCell>
        <mxCell id="eVyItokBTzeW3BjOjDOL-11" style="edgeStyle=orthogonalEdgeStyle;rounded=0;orthogonalLoop=1;jettySize=auto;html=1;entryX=0.501;entryY=-0.062;entryDx=0;entryDy=0;entryPerimeter=0;" edge="1" parent="1" source="eVyItokBTzeW3BjOjDOL-7" target="eVyItokBTzeW3BjOjDOL-10">
          <mxGeometry relative="1" as="geometry" />
        </mxCell>
        <mxCell id="eVyItokBTzeW3BjOjDOL-12" value="token, email, new_email" style="text;html=1;align=center;verticalAlign=middle;whiteSpace=wrap;rounded=0;" vertex="1" parent="1">
          <mxGeometry x="315" y="518" width="130" height="30" as="geometry" />
        </mxCell>
        <mxCell id="eVyItokBTzeW3BjOjDOL-13" value="E-mail service" style="rounded=1;whiteSpace=wrap;html=1;" vertex="1" parent="1">
          <mxGeometry x="470" y="558" width="120" height="60" as="geometry" />
        </mxCell>
        <mxCell id="eVyItokBTzeW3BjOjDOL-19" value="" style="rounded=1;whiteSpace=wrap;html=1;" vertex="1" parent="1">
          <mxGeometry x="720" y="318" width="180" height="190" as="geometry" />
        </mxCell>
        <mxCell id="eVyItokBTzeW3BjOjDOL-20" style="edgeStyle=orthogonalEdgeStyle;rounded=0;orthogonalLoop=1;jettySize=auto;html=1;entryX=0.5;entryY=0;entryDx=0;entryDy=0;" edge="1" parent="1" source="eVyItokBTzeW3BjOjDOL-21" target="eVyItokBTzeW3BjOjDOL-22">
          <mxGeometry relative="1" as="geometry" />
        </mxCell>
        <mxCell id="eVyItokBTzeW3BjOjDOL-21" value="change_email()" style="rounded=1;whiteSpace=wrap;html=1;" vertex="1" parent="1">
          <mxGeometry x="735" y="338" width="150" height="60" as="geometry" />
        </mxCell>
        <mxCell id="eVyItokBTzeW3BjOjDOL-26" style="edgeStyle=orthogonalEdgeStyle;rounded=0;orthogonalLoop=1;jettySize=auto;html=1;entryX=0.5;entryY=0;entryDx=0;entryDy=0;" edge="1" parent="1" source="eVyItokBTzeW3BjOjDOL-22" target="eVyItokBTzeW3BjOjDOL-25">
          <mxGeometry relative="1" as="geometry" />
        </mxCell>
        <mxCell id="eVyItokBTzeW3BjOjDOL-22" value="&lt;div&gt;fastapi-users&lt;/div&gt;&lt;div&gt;token logic&lt;/div&gt;" style="rounded=1;whiteSpace=wrap;html=1;" vertex="1" parent="1">
          <mxGeometry x="750" y="428" width="120" height="60" as="geometry" />
        </mxCell>
        <mxCell id="eVyItokBTzeW3BjOjDOL-25" value="email={new_email}" style="rounded=1;whiteSpace=wrap;html=1;" vertex="1" parent="1">
          <mxGeometry x="750" y="558" width="120" height="60" as="geometry" />
        </mxCell>
        <mxCell id="eVyItokBTzeW3BjOjDOL-15" style="edgeStyle=orthogonalEdgeStyle;rounded=0;orthogonalLoop=1;jettySize=auto;html=1;entryX=0.5;entryY=1;entryDx=0;entryDy=0;" edge="1" parent="1" source="eVyItokBTzeW3BjOjDOL-13" target="eVyItokBTzeW3BjOjDOL-14">
          <mxGeometry relative="1" as="geometry" />
        </mxCell>
        <mxCell id="eVyItokBTzeW3BjOjDOL-5" style="edgeStyle=orthogonalEdgeStyle;rounded=0;orthogonalLoop=1;jettySize=auto;html=1;entryX=0.5;entryY=0;entryDx=0;entryDy=0;" edge="1" parent="1" source="eVyItokBTzeW3BjOjDOL-2" target="eVyItokBTzeW3BjOjDOL-4">
          <mxGeometry relative="1" as="geometry" />
        </mxCell>
        <mxCell id="eVyItokBTzeW3BjOjDOL-24" style="edgeStyle=orthogonalEdgeStyle;rounded=0;orthogonalLoop=1;jettySize=auto;html=1;entryX=0.5;entryY=0;entryDx=0;entryDy=0;" edge="1" parent="1" source="eVyItokBTzeW3BjOjDOL-18" target="eVyItokBTzeW3BjOjDOL-21">
          <mxGeometry relative="1" as="geometry" />
        </mxCell>
        <mxCell id="eVyItokBTzeW3BjOjDOL-38" value="ORM logic" style="text;html=1;align=center;verticalAlign=middle;whiteSpace=wrap;rounded=0;" vertex="1" parent="1">
          <mxGeometry x="820" y="518" width="60" height="30" as="geometry" />
        </mxCell>
        <mxCell id="eVyItokBTzeW3BjOjDOL-39" value="&lt;div&gt;{&quot;new_email&quot;: &quot;string&quot;,&lt;/div&gt;&lt;div&gt;&quot;token&quot;: &quot;string&quot;}&lt;/div&gt;" style="text;html=1;align=left;verticalAlign=middle;whiteSpace=wrap;rounded=0;" vertex="1" parent="1">
          <mxGeometry x="820" y="238" width="140" height="30" as="geometry" />
        </mxCell>
        <mxCell id="eVyItokBTzeW3BjOjDOL-40" value="Frontend" style="text;html=1;align=center;verticalAlign=middle;whiteSpace=wrap;rounded=0;" vertex="1" parent="1">
          <mxGeometry x="570" y="30" width="60" height="30" as="geometry" />
        </mxCell>
        <mxCell id="eVyItokBTzeW3BjOjDOL-41" value="Backend" style="text;html=1;align=center;verticalAlign=middle;whiteSpace=wrap;rounded=0;" vertex="1" parent="1">
          <mxGeometry x="610" y="588" width="60" height="30" as="geometry" />
        </mxCell>
      </root>
    </mxGraphModel>
  </diagram>
</mxfile>
